# Staircase OBJ generated with custom logic
v 0.5000000 -0.5700000 0.0000000
v 0.5000000 -0.5700000 0.1500000
v 0.5000000 -0.1700000 0.0000000
v 0.5000000 -0.1700000 0.1500000
v 2.1000000 -0.5700000 0.0000000
v 2.1000000 -0.5700000 0.1500000
v 2.1000000 -0.1700000 0.0000000
v 2.1000000 -0.1700000 0.1500000
v 0.5000000 -0.9700000 0.1500000
v 0.5000000 -0.9700000 0.3000000
v 0.5000000 -0.5700000 0.1500000
v 0.5000000 -0.5700000 0.3000000
v 2.1000000 -0.9700000 0.1500000
v 2.1000000 -0.9700000 0.3000000
v 2.1000000 -0.5700000 0.1500000
v 2.1000000 -0.5700000 0.3000000
v 0.5000000 -1.3700000 0.3000000
v 0.5000000 -1.3700000 0.4500000
v 0.5000000 -0.9700000 0.3000000
v 0.5000000 -0.9700000 0.4500000
v 2.1000000 -1.3700000 0.3000000
v 2.1000000 -1.3700000 0.4500000
v 2.1000000 -0.9700000 0.3000000
v 2.1000000 -0.9700000 0.4500000
v 0.5000000 -1.7700000 0.4500000
v 0.5000000 -1.7700000 0.6000000
v 0.5000000 -1.3700000 0.4500000
v 0.5000000 -1.3700000 0.6000000
v 2.1000000 -1.7700000 0.4500000
v 2.1000000 -1.7700000 0.6000000
v 2.1000000 -1.3700000 0.4500000
v 2.1000000 -1.3700000 0.6000000
f 1 2 4
f 1 4 3
f 5 7 8
f 5 8 6
f 1 5 6
f 1 6 2
f 3 4 8
f 3 8 7
f 1 3 7
f 1 7 5
f 2 6 8
f 2 8 4
f 9 10 12
f 9 12 11
f 13 15 16
f 13 16 14
f 9 13 14
f 9 14 10
f 11 12 16
f 11 16 15
f 9 11 15
f 9 15 13
f 10 14 16
f 10 16 12
f 17 18 20
f 17 20 19
f 21 23 24
f 21 24 22
f 17 21 22
f 17 22 18
f 19 20 24
f 19 24 23
f 17 19 23
f 17 23 21
f 18 22 24
f 18 24 20
f 25 26 28
f 25 28 27
f 29 31 32
f 29 32 30
f 25 29 30
f 25 30 26
f 27 28 32
f 27 32 31
f 25 27 31
f 25 31 29
f 26 30 32
f 26 32 28