# Snooker Table Mesh
# Table top: 1.4m x 1.0m x 0.08m, centered at origin
# 4 legs: radius=0.04m, height=0.8m
# Total vertices: 144
# Total faces: 268

v -0.943939 -3.101515 0.782061
v 0.943939 -3.101515 0.782061
v 0.943939 -1.753030 0.782061
v -0.943939 -1.753030 0.782061
v -0.943939 -3.101515 0.889939
v 0.943939 -3.101515 0.889939
v 0.943939 -1.753030 0.889939
v -0.943939 -1.753030 0.889939
v 0.809091 -1.887879 0.782000
v 0.809091 -1.887879 -0.000000
v 0.863030 -1.887879 0.782000
v 0.863030 -1.887879 -0.000000
v 0.858924 -1.867237 0.782000
v 0.858924 -1.867237 -0.000000
v 0.847232 -1.849738 0.782000
v 0.847232 -1.849738 -0.000000
v 0.829733 -1.838045 0.782000
v 0.829733 -1.838045 -0.000000
v 0.809091 -1.833939 0.782000
v 0.809091 -1.833939 -0.000000
v 0.788449 -1.838045 0.782000
v 0.788449 -1.838045 -0.000000
v 0.770950 -1.849738 0.782000
v 0.770950 -1.849738 -0.000000
v 0.759257 -1.867237 0.782000
v 0.759257 -1.867237 -0.000000
v 0.755152 -1.887879 0.782000
v 0.755152 -1.887879 -0.000000
v 0.759257 -1.908521 0.782000
v 0.759257 -1.908521 -0.000000
v 0.770950 -1.926020 0.782000
v 0.770950 -1.926020 -0.000000
v 0.788449 -1.937712 0.782000
v 0.788449 -1.937712 -0.000000
v 0.809091 -1.941818 0.782000
v 0.809091 -1.941818 -0.000000
v 0.829733 -1.937712 0.782000
v 0.829733 -1.937712 -0.000000
v 0.847232 -1.926020 0.782000
v 0.847232 -1.926020 -0.000000
v 0.858924 -1.908521 0.782000
v 0.858924 -1.908521 -0.000000
v 0.809091 -2.966667 0.782000
v 0.809091 -2.966667 -0.000000
v 0.863030 -2.966667 0.782000
v 0.863030 -2.966667 -0.000000
v 0.858924 -2.946025 0.782000
v 0.858924 -2.946025 -0.000000
v 0.847232 -2.928526 0.782000
v 0.847232 -2.928526 -0.000000
v 0.829733 -2.916833 0.782000
v 0.829733 -2.916833 -0.000000
v 0.809091 -2.912727 0.782000
v 0.809091 -2.912727 -0.000000
v 0.788449 -2.916833 0.782000
v 0.788449 -2.916833 -0.000000
v 0.770950 -2.928526 0.782000
v 0.770950 -2.928526 -0.000000
v 0.759257 -2.946025 0.782000
v 0.759257 -2.946025 -0.000000
v 0.755152 -2.966667 0.782000
v 0.755152 -2.966667 -0.000000
v 0.759257 -2.987308 0.782000
v 0.759257 -2.987308 -0.000000
v 0.770950 -3.004808 0.782000
v 0.770950 -3.004808 -0.000000
v 0.788449 -3.016500 0.782000
v 0.788449 -3.016500 -0.000000
v 0.809091 -3.020606 0.782000
v 0.809091 -3.020606 -0.000000
v 0.829733 -3.016500 0.782000
v 0.829733 -3.016500 -0.000000
v 0.847232 -3.004808 0.782000
v 0.847232 -3.004808 -0.000000
v 0.858924 -2.987308 0.782000
v 0.858924 -2.987308 -0.000000
v -0.809091 -1.887879 0.782000
v -0.809091 -1.887879 -0.000000
v -0.755152 -1.887879 0.782000
v -0.755152 -1.887879 -0.000000
v -0.759257 -1.867237 0.782000
v -0.759257 -1.867237 -0.000000
v -0.770950 -1.849738 0.782000
v -0.770950 -1.849738 -0.000000
v -0.788449 -1.838045 0.782000
v -0.788449 -1.838045 -0.000000
v -0.809091 -1.833939 0.782000
v -0.809091 -1.833939 -0.000000
v -0.829733 -1.838045 0.782000
v -0.829733 -1.838045 -0.000000
v -0.847232 -1.849738 0.782000
v -0.847232 -1.849738 -0.000000
v -0.858924 -1.867237 0.782000
v -0.858924 -1.867237 -0.000000
v -0.863030 -1.887879 0.782000
v -0.863030 -1.887879 -0.000000
v -0.858924 -1.908521 0.782000
v -0.858924 -1.908521 -0.000000
v -0.847232 -1.926020 0.782000
v -0.847232 -1.926020 -0.000000
v -0.829733 -1.937712 0.782000
v -0.829733 -1.937712 -0.000000
v -0.809091 -1.941818 0.782000
v -0.809091 -1.941818 -0.000000
v -0.788449 -1.937712 0.782000
v -0.788449 -1.937712 -0.000000
v -0.770950 -1.926020 0.782000
v -0.770950 -1.926020 -0.000000
v -0.759257 -1.908521 0.782000
v -0.759257 -1.908521 -0.000000
v -0.809091 -2.966667 0.782000
v -0.809091 -2.966667 -0.000000
v -0.755152 -2.966667 0.782000
v -0.755152 -2.966667 -0.000000
v -0.759257 -2.946025 0.782000
v -0.759257 -2.946025 -0.000000
v -0.770950 -2.928526 0.782000
v -0.770950 -2.928526 -0.000000
v -0.788449 -2.916833 0.782000
v -0.788449 -2.916833 -0.000000
v -0.809091 -2.912727 0.782000
v -0.809091 -2.912727 -0.000000
v -0.829733 -2.916833 0.782000
v -0.829733 -2.916833 -0.000000
v -0.847232 -2.928526 0.782000
v -0.847232 -2.928526 -0.000000
v -0.858924 -2.946025 0.782000
v -0.858924 -2.946025 -0.000000
v -0.863030 -2.966667 0.782000
v -0.863030 -2.966667 -0.000000
v -0.858924 -2.987308 0.782000
v -0.858924 -2.987308 -0.000000
v -0.847232 -3.004808 0.782000
v -0.847232 -3.004808 -0.000000
v -0.829733 -3.016500 0.782000
v -0.829733 -3.016500 -0.000000
v -0.809091 -3.020606 0.782000
v -0.809091 -3.020606 -0.000000
v -0.788449 -3.016500 0.782000
v -0.788449 -3.016500 -0.000000
v -0.770950 -3.004808 0.782000
v -0.770950 -3.004808 -0.000000
v -0.759257 -2.987308 0.782000
v -0.759257 -2.987308 -0.000000

f 1 3 2
f 1 4 3
f 5 6 7
f 5 7 8
f 4 8 3
f 3 8 7
f 1 2 5
f 2 6 5
f 1 5 4
f 4 5 8
f 2 3 6
f 3 7 6
f 9 13 11
f 10 12 14
f 11 13 12
f 12 13 14
f 9 15 13
f 10 14 16
f 13 15 14
f 14 15 16
f 9 17 15
f 10 16 18
f 15 17 16
f 16 17 18
f 9 19 17
f 10 18 20
f 17 19 18
f 18 19 20
f 9 21 19
f 10 20 22
f 19 21 20
f 20 21 22
f 9 23 21
f 10 22 24
f 21 23 22
f 22 23 24
f 9 25 23
f 10 24 26
f 23 25 24
f 24 25 26
f 9 27 25
f 10 26 28
f 25 27 26
f 26 27 28
f 9 29 27
f 10 28 30
f 27 29 28
f 28 29 30
f 9 31 29
f 10 30 32
f 29 31 30
f 30 31 32
f 9 33 31
f 10 32 34
f 31 33 32
f 32 33 34
f 9 35 33
f 10 34 36
f 33 35 34
f 34 35 36
f 9 37 35
f 10 36 38
f 35 37 36
f 36 37 38
f 9 39 37
f 10 38 40
f 37 39 38
f 38 39 40
f 9 41 39
f 10 40 42
f 39 41 40
f 40 41 42
f 9 11 41
f 10 42 12
f 41 11 42
f 42 11 12
f 43 47 45
f 44 46 48
f 45 47 46
f 46 47 48
f 43 49 47
f 44 48 50
f 47 49 48
f 48 49 50
f 43 51 49
f 44 50 52
f 49 51 50
f 50 51 52
f 43 53 51
f 44 52 54
f 51 53 52
f 52 53 54
f 43 55 53
f 44 54 56
f 53 55 54
f 54 55 56
f 43 57 55
f 44 56 58
f 55 57 56
f 56 57 58
f 43 59 57
f 44 58 60
f 57 59 58
f 58 59 60
f 43 61 59
f 44 60 62
f 59 61 60
f 60 61 62
f 43 63 61
f 44 62 64
f 61 63 62
f 62 63 64
f 43 65 63
f 44 64 66
f 63 65 64
f 64 65 66
f 43 67 65
f 44 66 68
f 65 67 66
f 66 67 68
f 43 69 67
f 44 68 70
f 67 69 68
f 68 69 70
f 43 71 69
f 44 70 72
f 69 71 70
f 70 71 72
f 43 73 71
f 44 72 74
f 71 73 72
f 72 73 74
f 43 75 73
f 44 74 76
f 73 75 74
f 74 75 76
f 43 45 75
f 44 76 46
f 75 45 76
f 76 45 46
f 77 81 79
f 78 80 82
f 79 81 80
f 80 81 82
f 77 83 81
f 78 82 84
f 81 83 82
f 82 83 84
f 77 85 83
f 78 84 86
f 83 85 84
f 84 85 86
f 77 87 85
f 78 86 88
f 85 87 86
f 86 87 88
f 77 89 87
f 78 88 90
f 87 89 88
f 88 89 90
f 77 91 89
f 78 90 92
f 89 91 90
f 90 91 92
f 77 93 91
f 78 92 94
f 91 93 92
f 92 93 94
f 77 95 93
f 78 94 96
f 93 95 94
f 94 95 96
f 77 97 95
f 78 96 98
f 95 97 96
f 96 97 98
f 77 99 97
f 78 98 100
f 97 99 98
f 98 99 100
f 77 101 99
f 78 100 102
f 99 101 100
f 100 101 102
f 77 103 101
f 78 102 104
f 101 103 102
f 102 103 104
f 77 105 103
f 78 104 106
f 103 105 104
f 104 105 106
f 77 107 105
f 78 106 108
f 105 107 106
f 106 107 108
f 77 109 107
f 78 108 110
f 107 109 108
f 108 109 110
f 77 79 109
f 78 110 80
f 109 79 110
f 110 79 80
f 111 115 113
f 112 114 116
f 113 115 114
f 114 115 116
f 111 117 115
f 112 116 118
f 115 117 116
f 116 117 118
f 111 119 117
f 112 118 120
f 117 119 118
f 118 119 120
f 111 121 119
f 112 120 122
f 119 121 120
f 120 121 122
f 111 123 121
f 112 122 124
f 121 123 122
f 122 123 124
f 111 125 123
f 112 124 126
f 123 125 124
f 124 125 126
f 111 127 125
f 112 126 128
f 125 127 126
f 126 127 128
f 111 129 127
f 112 128 130
f 127 129 128
f 128 129 130
f 111 131 129
f 112 130 132
f 129 131 130
f 130 131 132
f 111 133 131
f 112 132 134
f 131 133 132
f 132 133 134
f 111 135 133
f 112 134 136
f 133 135 134
f 134 135 136
f 111 137 135
f 112 136 138
f 135 137 136
f 136 137 138
f 111 139 137
f 112 138 140
f 137 139 138
f 138 139 140
f 111 141 139
f 112 140 142
f 139 141 140
f 140 141 142
f 111 143 141
f 112 142 144
f 141 143 142
f 142 143 144
f 111 113 143
f 112 144 114
f 143 113 144
f 144 113 114
